 http://img263.imageshack.us/img263/6200/screamofthebanshee2011d.jpg

Country.......: USA
Genre.........: Horror
Date release..: 26.03.2011 [World]
Director......: Steven C. Miller
Writers.......: Anthony C. Ferrante, Anthony C. Ferrante
Duration......: 90 min.
More..........: http://www.imdb.com/title/tt1548628
Trailer.......: http://www.imdb.com/video/screenplay/vi58301721
Trailer.......:

Pilot :
An archeology professor unearths a dangerous artifact, unwittingly releasing a creature that is able to kill with the power of its bone-splitting scream.

Cats :
Monica Acosta   	 ...  	Detective
Eric F. Adams 	... 	Samuel Page
Marcelle Baer 	... 	Shayla Whelan
Edrick Browne 	... 	Officer Sioux
Leanne Cochran 	... 	Janie
Thomas C. Daniel 	... 	Young Duncan
Kasey Amanda Emas 	... 	School Girl (as Kasey Amanda)
Todd Haberkorn 	... 	Otto
Lucy Hale 	... 	Lauren Abbott
Lance Henriksen 	... 	Broderick Duncan
Garrett Hines 	... 	Kurtis
Lauren Holly 	... 	Professor Isla Whelan
Kayden Kessler 	... 	Jenko Rodriguez
Don Lincoln 	... 	Detective
Kim Ormiston 	... 	The Banshee | Woman in the Red Cape 

Data Technical :
!!! SAMPLE !!!
Audio.....: English
Subtitles.: None
Format                           : AVI
Format/Info                      : Audio Video Interleave
File size                        : 789 MiB
Duration                         : 1h 30mn
Overall bit rate                 : 1 226 Kbps
Writing library                  : VirtualDub build 32842/release
Video
ID                               : 0
Format                           : MPEG-4 Visual
Format profile                   : Advanced Simple@L5
Format settings, BVOP            : Yes
Format settings, QPel            : No
Format settings, GMC             : No warppoints
Format settings, Matrix          : Default (H.263)
Muxing mode                      : Packed bitstream
Codec ID                         : XVID
Codec ID/Hint                    : XviD
Duration                         : 1h 30mn
Bit rate                         : 958 Kbps
Width                            : 624 pixels
Height                           : 352 pixels
Display aspect ratio             : 16:9
Frame rate                       : 29.970 fps
Color space                      : YUV
Chroma subsampling               : 4:2:0
Bit depth                        : 8 bits
Scan type                        : Progressive
Bits/(Pixel*Frame)               : 0.146
Stream size                      : 617 MiB (78%)
Writing library                  : XviD 63
Audio
ID                               : 1
Format                           : MPEG Audio
Format version                   : Version 1
Format profile                   : Layer 3
Mode                             : Joint stereo
Codec ID                         : 55
Codec ID/Hint                    : MP3
Duration                         : 1h 30mn
Bit rate mode                    : Constant
Bit rate                         : 256 Kbps
Channel(s)                       : 2 channels
Sampling rate                    : 48.0 KHz
Stream size                      : 165 MiB (21%)
Alignment                        : Split accross interleaves
Interleave, duration             : 33 ms (1.00 video frame)
Interleave, preload duration     : 500 ms
Writing library                  : LAME3.98 (beta)

Screen : 
http://img718.imageshack.us/img718/147/screamofthebanshee2011s.jpg 
http://img96.imageshack.us/img96/147/screamofthebanshee2011s.jpg 
http://img851.imageshack.us/img851/147/screamofthebanshee2011s.jpg 
http://img155.imageshack.us/img155/147/screamofthebanshee2011s.jpg 
http://img59.imageshack.us/img59/147/screamofthebanshee2011s.jpg